<svg xmlns="http://www.w3.org/2000/svg" xmlns:xlink="http://www.w3.org/1999/xlink" width="7" height="7" version="1.1" viewBox="0 0 7 7"><title>arrow</title><desc>Created with Sketch.</desc><g id="Page-1" fill="none" fill-rule="evenodd" stroke="none" stroke-width="1"><g id="arrow" fill="#FFF" transform="translate(-2.000000, -2.000000)"><path id="Shape" d="M2.46098416,5.96079581 L7.61017717,5.96079581 L5.36057449,8.21039849 C5.18067514,8.39151711 5.18067514,8.68387737 5.36057449,8.86499599 C5.44664652,8.95141866 5.5635959,9 5.68556832,9 C5.80754075,9 5.92449012,8.95141866 6.01056215,8.86499599 L9.04844774,5.82711041 C9.13487041,5.74103838 9.18345175,5.624089 9.18345175,5.50211658 C9.18345175,5.38014415 9.13487041,5.26319477 9.04844774,5.17712275 L6.01517199,2.13462732 C5.89906288,2.01851821 5.72983016,1.97317244 5.57122217,2.01567132 C5.41261417,2.05817021 5.28872722,2.18205716 5.24622834,2.34066515 C5.20372945,2.49927315 5.24907522,2.66850587 5.36518433,2.78461498 L7.61017717,5.0388275 L2.46098416,5.0388275 C2.20744287,5.0388275 2,5.24627037 2,5.49981166 C2,5.75335294 2.20744287,5.96079581 2.46098416,5.96079581 Z" transform="translate(5.591726, 5.500000) rotate(-45.000000) translate(-5.591726, -5.500000)"/></g></g></svg>